<svg width="127.000000" height="31.000000" viewBox="0 0 127 31" fill="none" xmlns="http://www.w3.org/2000/svg" xmlns:xlink="http://www.w3.org/1999/xlink">
	<desc>
			Created with Pixso.
	</desc>
	<defs/>
	<path id="Fill 1" d="M3.18 14.16C3.18 14.64 3.21 15.08 3.28 15.53C5.63 15.3 9.6 14.22 9.6 11.1C9.6 9.7 8.87 8.33 7.02 8.33C4.61 8.33 3.18 10.72 3.18 14.16ZM13.98 20.05C13.19 21.32 10.71 23.87 6.9 23.87C2.67 23.87 -0.92 20.75 -0.92 15.81C-0.92 10.62 3.05 6.9 7.6 6.9C10.68 6.9 13.15 8.49 13.15 11.2C13.15 15.43 6.93 16.39 3.5 16.71C4.29 19.6 6.45 20.78 8.74 20.78C10.64 20.78 11.98 19.83 12.9 19.13C13.5 18.65 14.27 19.6 13.98 20.05Z" fill="#1E1928" fill-opacity="1.000000" fill-rule="evenodd"/>
	<path id="Fill 3" d="M41.77 21.83C42.21 21.9 42.5 22.22 42.5 22.66L42.5 22.79C42.5 23.24 42.21 23.52 41.77 23.52L35.26 23.52C34.81 23.52 34.53 23.24 34.53 22.79L34.53 22.66C34.53 22.22 34.81 21.9 35.26 21.83L35.86 21.77C36.31 21.71 36.59 21.39 36.59 20.94L36.59 12.57C36.59 10.62 35.45 9.76 34.02 9.76C33 9.76 31.92 10.11 31.03 11C30.75 11.29 30.59 11.51 30.59 12.15L30.59 20.94C30.59 21.39 30.88 21.71 31.32 21.77L31.92 21.83C32.37 21.9 32.65 22.22 32.65 22.66L32.65 22.79C32.65 23.24 32.37 23.52 31.92 23.52L25.41 23.52C24.97 23.52 24.68 23.24 24.68 22.79L24.68 22.66C24.68 22.22 24.97 21.9 25.41 21.83L26.02 21.77C26.46 21.71 26.75 21.39 26.75 20.94L26.75 12.57C26.75 10.62 25.6 9.76 24.17 9.76C23.16 9.76 21.98 10.24 21.12 11.04C20.81 11.35 20.65 11.61 20.65 12.09L20.65 20.94C20.65 21.39 20.93 21.71 21.38 21.77L21.98 21.83C22.43 21.9 22.71 22.22 22.71 22.66L22.71 22.79C22.71 23.24 22.43 23.52 21.98 23.52L15.47 23.52C15.03 23.52 14.74 23.24 14.74 22.79L14.74 22.66C14.74 22.22 15.03 21.9 15.47 21.83L16.08 21.77C16.52 21.71 16.81 21.39 16.81 20.94L16.81 10.49C16.81 10.05 16.52 9.73 16.08 9.67L15.34 9.57C14.9 9.51 14.61 9.19 14.61 8.74L14.61 8.62C14.61 8.17 14.9 7.88 15.34 7.88C16.58 7.82 17.92 7.47 19.12 6.96C19.54 6.77 19.85 6.93 19.92 7.37L20.36 9.83L20.78 9.83C21.95 8.2 23.67 6.9 26.05 6.9C28.08 6.9 29.51 8.01 30.18 9.83L30.62 9.83C31.8 8.2 33.51 6.9 35.89 6.9C38.75 6.9 40.43 9.16 40.43 12.37L40.43 20.94C40.43 21.39 40.72 21.71 41.17 21.77L41.77 21.83Z" fill="#1E1928" fill-opacity="1.000000" fill-rule="evenodd"/>
	<path id="Fill 5" d="M55.87 15.69C55.87 11.39 54.19 9.57 51.77 9.57C50.72 9.57 49.96 9.92 49.29 10.4C48.75 10.78 48.34 11.23 48.34 12.09L48.34 19.92C48.34 21.23 49.55 22.38 51.3 22.38C53.87 22.38 55.87 20.21 55.87 15.69ZM59.97 14.89C59.97 21.48 55.62 23.9 51.8 23.9C50.66 23.9 49.29 23.68 48.34 23.27L48.34 28.05C48.34 28.49 48.63 28.81 49.07 28.91L50.66 29.13C51.11 29.22 51.39 29.54 51.39 29.99L51.39 30.12C51.39 30.56 51.11 30.85 50.66 30.85L43.13 30.85C42.69 30.85 42.4 30.56 42.4 30.12L42.4 29.99C42.4 29.54 42.69 29.19 43.1 29.1L43.8 28.94C44.21 28.84 44.5 28.49 44.5 28.05L44.5 10.49C44.5 10.05 44.21 9.73 43.77 9.67L43.04 9.57C42.59 9.51 42.31 9.19 42.31 8.74L42.31 8.62C42.31 8.17 42.59 7.88 43.04 7.88C44.28 7.82 45.61 7.47 46.82 6.96C47.23 6.77 47.55 6.93 47.61 7.37L47.99 9.48L48.41 9.48C49.87 7.6 51.58 6.9 53.46 6.9C57.39 6.9 59.97 10.18 59.97 14.89Z" fill="#1E1928" fill-opacity="1.000000" fill-rule="evenodd"/>
	<path id="Fill 7" d="M70.48 17.31C70.48 16.87 70.22 16.58 69.78 16.58L68.6 16.58C66.6 16.58 65.17 17.41 65.17 19.19C65.17 20.72 66.22 21.48 67.49 21.48C68.6 21.48 69.46 20.91 69.87 20.53C70.22 20.21 70.32 19.99 70.35 19.35L70.48 17.31ZM77.4 21.68C77.34 21.8 77.21 21.96 77.12 22.09C76.29 23.08 75.12 23.75 73.69 23.75C72.13 23.75 71.11 22.95 70.83 21.36L70.41 21.36C69.18 23.01 67.43 23.9 65.65 23.9C63.21 23.9 61.33 22.31 61.33 19.99C61.33 17.88 62.89 16.45 65.9 15.78L69.91 14.92C70.32 14.83 70.61 14.48 70.64 14.03L70.7 12.98C70.83 10.43 69.81 8.71 67.08 8.71C65.81 8.71 64.6 9.09 63.65 9.83C64.86 9.83 65.81 10.69 65.81 11.9C65.81 13.11 64.86 14.03 63.65 14.03C62.44 14.03 61.49 13.07 61.49 11.51C61.49 8.49 65.11 6.9 68.48 6.9C72.35 6.9 74.77 8.97 74.54 12.69L74.13 20.02C74.07 20.94 74.51 21.26 75.08 21.26C75.34 21.26 75.88 21.2 76.67 20.88C77.15 20.69 77.59 21.2 77.4 21.68Z" fill="#1E1928" fill-opacity="1.000000" fill-rule="evenodd"/>
	<path id="Fill 9" d="M82.77 23.78C80.39 23.78 78.89 22.57 78.89 19.03L78.89 9.7C78.89 9.48 78.77 9.28 78.54 9.22L77.02 8.62C76.83 8.52 76.7 8.36 76.7 8.17L76.7 8.11C76.7 7.95 76.8 7.79 76.99 7.69C78.74 6.58 80.39 5.14 82.04 3.36C82.32 3.07 82.96 3.3 82.9 3.77L82.42 7.28L87.25 7.28C87.69 7.28 87.95 7.56 87.88 8.01L87.76 8.62C87.69 9.06 87.37 9.32 86.93 9.28L82.74 9L82.74 18.55C82.74 20.82 83.59 21.2 84.83 21.2C85.88 21.2 86.64 20.91 86.96 20.75C87.31 20.59 87.6 20.75 87.72 20.97C87.88 21.23 87.91 21.58 87.6 21.87C86.48 22.79 84.93 23.78 82.77 23.78Z" fill="#1E1928" fill-opacity="1.000000" fill-rule="evenodd"/>
	<path id="Fill 11" d="M106.21 21.83C106.65 21.9 106.94 22.22 106.94 22.66L106.94 22.79C106.94 23.24 106.65 23.52 106.21 23.52L99.7 23.52C99.25 23.52 98.97 23.24 98.97 22.79L98.97 22.66C98.97 22.22 99.25 21.9 99.7 21.83L100.3 21.77C100.74 21.71 101.03 21.39 101.03 20.94L101.03 12.5C101.03 10.4 99.76 9.76 98.33 9.76C97.09 9.76 95.98 10.24 95 11.13C94.87 11.26 94.61 11.51 94.61 11.99L94.61 20.94C94.61 21.39 94.9 21.71 95.35 21.77L95.95 21.83C96.39 21.9 96.68 22.22 96.68 22.66L96.68 22.79C96.68 23.24 96.39 23.52 95.95 23.52L89.44 23.52C88.99 23.52 88.71 23.24 88.71 22.79L88.71 22.66C88.71 22.22 88.99 21.9 89.44 21.83L90.04 21.77C90.49 21.71 90.77 21.39 90.77 20.94L90.77 2.75C90.77 2.44 90.58 2.21 90.26 2.18L89.44 2.02C88.99 1.96 88.71 1.64 88.71 1.23C88.71 0.78 88.99 0.49 89.44 0.46C90.9 0.33 92.36 -0.11 93.88 -0.81C94.33 -1.04 94.61 -0.88 94.61 -0.43L94.61 9.63L95.03 9.63C96.2 8.01 97.89 6.9 100.11 6.9C103.25 6.9 104.87 9.16 104.87 12.37L104.87 20.94C104.87 21.39 105.16 21.71 105.6 21.77L106.21 21.83Z" fill="#1E1928" fill-opacity="1.000000" fill-rule="evenodd"/>
	<path id="Fill 13" d="M122.88 7.28C123.33 7.28 123.61 7.56 123.61 8.01L123.61 8.04C123.61 8.49 123.33 8.84 122.91 8.93L122.66 9C122.25 9.09 121.9 9.44 121.8 9.86C120.37 15.91 117.99 22.85 114.78 27.06C112.97 29.42 110.97 30.91 108.59 30.91C106.33 30.91 105.57 29.54 105.57 28.3C105.57 26.99 106.49 26.07 107.76 26.07C109.03 26.07 109.95 26.99 109.95 28.27C109.95 28.56 109.92 28.81 109.83 29.06C111.67 28.33 113.26 26.61 114.66 24.35C111.86 19.64 109.64 14.89 108.02 9.51C107.95 9.25 107.73 9.06 107.45 9.03L106.94 8.93C106.49 8.87 106.21 8.55 106.21 8.11L106.21 8.01C106.21 7.56 106.49 7.28 106.94 7.28L113.19 7.28C113.64 7.28 113.92 7.56 113.92 8.01L113.92 8.11C113.92 8.55 113.64 8.87 113.19 8.93L112.88 9C112.43 9.06 112.21 9.38 112.3 9.79C113.35 13.84 115.13 17.6 116.62 20.66C118.02 17.28 119.16 13.33 119.93 9.83C120.02 9.41 119.8 9.09 119.36 9.03L118.5 8.9C118.05 8.84 117.77 8.52 117.77 8.07L117.77 8.01C117.77 7.56 118.05 7.28 118.5 7.28L122.88 7.28Z" fill="#1E1928" fill-opacity="1.000000" fill-rule="evenodd"/>
	<path id="Fill 15" d="M124.44 23.94C123.07 23.94 121.96 22.85 121.96 21.48C121.96 20.15 123.07 19.03 124.44 19.03C125.77 19.03 126.88 20.15 126.88 21.48C126.88 22.85 125.77 23.94 124.44 23.94Z" fill="#1E1928" fill-opacity="1.000000" fill-rule="evenodd"/>
</svg>
